<svg width="179" height="112" viewBox="0 0 179 112" fill="none" xmlns="http://www.w3.org/2000/svg">
<rect width="179" height="112" fill="#F2F2F2"/>
<g id="Balloon Flights (Desktop)" clip-path="url(#clip0_0_1)">
<rect width="1440" height="8893" transform="translate(-1139 -6231)" fill="white"/>
<g id="clouds">
<g id="Group 2">
<g id="Group 19">
<path id="Path Copy 7" fill-rule="evenodd" clip-rule="evenodd" d="M-314.814 -4752.32C-290.154 -4775.89 -253.433 -4784.87 -219.26 -4772.41C-178.865 -4757.69 -154.88 -4717.68 -158.578 -4676.63C-152.686 -4693.42 -140.559 -4707.44 -124.536 -4715.61C-105.581 -4725.27 -83.2565 -4725.68 -63.9619 -4716.71C-46.5011 -4765.01 6.64368 -4789.95 54.7402 -4772.41C88.1517 -4760.23 110.337 -4730.76 114.916 -4697.7C137.401 -4709.95 164.804 -4712.85 190.74 -4703.39C232.899 -4688.02 257.184 -4645.11 250.778 -4602.22C263.977 -4625.94 289.2 -4641.95 318.111 -4642H604.005C650.943 -4642 689 -4603.77 689 -4556.61C689 -4509.45 650.943 -4471.22 604.005 -4471.22C598.353 -4471.22 592.712 -4471.79 587.174 -4472.91C582.997 -4451.97 569.494 -4434.11 550.536 -4424.44C531.581 -4414.77 509.256 -4414.37 489.962 -4423.34C472.501 -4375.02 419.356 -4350.07 371.26 -4367.61C329.079 -4383 304.791 -4425.95 311.232 -4468.88C308.362 -4463.72 304.922 -4458.93 301 -4454.58V542H-1153V-4483.57C-1179.23 -4498.11 -1197 -4526.16 -1197 -4558.39C-1197 -4605.55 -1158.94 -4643.78 -1112 -4643.78C-1106.35 -4643.78 -1100.71 -4643.21 -1095.17 -4642.08C-1091 -4663.03 -1077.49 -4680.89 -1058.54 -4690.56C-1039.58 -4700.23 -1017.26 -4700.63 -997.962 -4691.66C-980.501 -4739.98 -927.356 -4764.93 -879.26 -4747.39C-837.375 -4732.11 -813.132 -4689.64 -819.101 -4647.02C-813.424 -4664.5 -801.049 -4679.14 -784.535 -4687.56C-765.581 -4697.23 -743.256 -4697.63 -723.962 -4688.66C-706.501 -4736.98 -653.356 -4761.93 -605.26 -4744.39C-587.64 -4737.96 -573.142 -4726.72 -562.702 -4712.69C-569.372 -4755.75 -545.063 -4798.95 -502.74 -4814.39C-454.644 -4831.93 -401.499 -4806.98 -384.038 -4758.66C-364.744 -4767.63 -342.419 -4767.23 -323.464 -4757.56C-320.437 -4756.01 -317.548 -4754.26 -314.814 -4752.32Z" fill="#248DFF"/>
</g>
</g>
<path id="Path Copy 14" opacity="0.230864" fill-rule="evenodd" clip-rule="evenodd" d="M145.04 43.6897C142.782 43.6897 140.528 43.9156 138.315 44.3659C136.646 35.9893 131.251 28.8438 123.676 24.9762C116.103 21.1086 107.183 20.9464 99.4736 24.535C92.4971 5.20752 71.2629 -4.77159 52.0458 2.24502C32.8286 9.26162 22.9064 30.6192 29.883 49.9452C13.0491 50.4804 -0.24823 64.4939 0.00351622 81.4305C0.25677 98.3686 13.9672 111.973 30.8101 112H145.04C163.794 112 179 96.7084 179 77.8448C179 58.9813 163.794 43.6897 145.04 43.6897Z" fill="white"/>
</g>
<g id="certificate">
</g>
</g>
<defs>
<clipPath id="clip0_0_1">
<rect width="1440" height="8893" fill="white" transform="translate(-1139 -6231)"/>
</clipPath>
</defs>
</svg>
