<svg width="197" height="197" viewBox="0 0 197 197" fill="none" xmlns="http://www.w3.org/2000/svg">
<rect width="197" height="197" rx="98.5" fill="#ECF7FF"/>
<path fill-rule="evenodd" clip-rule="evenodd" d="M145 68.5C145 72.0899 142.09 75 138.5 75C134.91 75 132 72.0899 132 68.5C132 64.9101 134.91 62 138.5 62C142.09 62 145 64.9101 145 68.5ZM49.5782 78H66.5385C70.6322 78 73.9793 81.318 73.9999 85.396L74 85.4034C74 85.4072 73.9999 85.411 73.9997 85.415L73.9783 108.491C73.9768 110.225 72.5652 111.629 70.8254 111.629H70.8224C69.0811 111.628 67.6707 110.22 67.6724 108.485L67.6938 85.4218V85.4215C67.6664 85.0691 67.3638 84.8017 67.0091 84.8155C66.6543 84.8294 66.3742 85.1197 66.3742 85.4733C66.3749 99.3496 66.3884 101.543 66.4032 103.955V103.955V103.955C66.4219 107.006 66.4428 110.407 66.4428 138.231C66.4428 140.312 64.7489 142 62.6593 142C60.5696 142 58.8757 140.312 58.8757 138.231V108.102H57.242V138.231C57.242 140.312 55.548 142 53.4583 142C51.3687 142 49.6746 140.312 49.6746 138.231L49.6732 85.4273C49.6732 85.0847 49.3955 84.8062 49.0516 84.8042C48.7077 84.8022 48.4266 85.0774 48.4226 85.42V85.4278L48.3061 108.504C48.2971 110.233 46.8875 111.629 45.1534 111.629H45.137C43.3959 111.621 41.9913 110.207 42 108.473L42.1167 85.396C42.1373 81.318 45.4842 78 49.5782 78ZM58.5 75C62.0899 75 65 72.0899 65 68.5C65 64.9101 62.0899 62 58.5 62C54.9101 62 52 64.9101 52 68.5C52 72.0899 54.9101 75 58.5 75ZM89.5782 78H106.539C110.632 78 113.979 81.318 114 85.396L114 85.405L114 85.415L113.978 108.491C113.977 110.225 112.565 111.629 110.825 111.629H110.822C109.081 111.628 107.671 110.22 107.672 108.485L107.694 85.4218V85.4215C107.666 85.0691 107.364 84.8017 107.009 84.8155C106.654 84.8294 106.374 85.1197 106.374 85.4733C106.375 99.3496 106.388 101.543 106.403 103.955V103.955C106.422 107.006 106.443 110.407 106.443 138.231C106.443 140.312 104.749 142 102.659 142C100.57 142 98.8757 140.312 98.8757 138.231V108.102H97.242V138.231C97.242 140.312 95.548 142 93.4583 142C91.3687 142 89.6746 140.312 89.6746 138.231L89.6732 85.4273C89.6732 85.0847 89.3955 84.8062 89.0516 84.8042C88.7077 84.8022 88.4266 85.0774 88.4226 85.42V85.4278L88.3061 108.504C88.2971 110.233 86.8875 111.629 85.1534 111.629H85.137C83.3959 111.621 81.9913 110.207 82 108.473L82.1167 85.396C82.1373 81.318 85.4842 78 89.5782 78ZM98.5 75C102.09 75 105 72.0899 105 68.5C105 64.9101 102.09 62 98.5 62C94.9101 62 92 64.9101 92 68.5C92 72.0899 94.9101 75 98.5 75ZM129.578 78H146.539C150.632 78 153.979 81.318 154 85.396C154 85.4025 154 85.4085 154 85.415L153.978 108.491C153.977 110.225 152.565 111.629 150.825 111.629H150.822C149.081 111.628 147.671 110.22 147.672 108.485L147.694 85.4218V85.4215C147.666 85.0691 147.364 84.8017 147.009 84.8155C146.654 84.8294 146.374 85.1197 146.374 85.4733C146.375 99.3496 146.388 101.543 146.403 103.955C146.422 107.006 146.443 110.406 146.443 138.231C146.443 140.312 144.749 142 142.659 142C140.57 142 138.876 140.312 138.876 138.231V108.102H137.242V138.231C137.242 140.312 135.548 142 133.458 142C131.369 142 129.675 140.312 129.675 138.231L129.673 85.4273C129.673 85.0847 129.395 84.8062 129.052 84.8042C128.708 84.8022 128.427 85.0774 128.423 85.42V85.4278L128.306 108.504C128.297 110.233 126.887 111.629 125.153 111.629H125.137C123.396 111.621 121.991 110.207 122 108.473L122.117 85.396C122.137 81.318 125.484 78 129.578 78Z" fill="#248DFF"/>
</svg>
