<svg width="197" height="197" viewBox="0 0 197 197" fill="none" xmlns="http://www.w3.org/2000/svg">
<rect width="197" height="197" rx="98.5" fill="#ECF7FF"/>
<path fill-rule="evenodd" clip-rule="evenodd" d="M118.457 36C118.903 36 119.321 36.119 119.686 36.3259C120.469 36.7738 121 37.6334 121 38.6213C121 38.9038 120.955 39.1755 120.874 39.4294C120.437 41.4508 116.501 44 116.501 44C116.501 44 112.562 41.4507 112.126 39.4294C112.045 39.1755 112 38.9042 112 38.6213C112 37.6331 112.531 36.7732 113.314 36.3259C113.68 36.119 114.097 36 114.542 36C115.329 36 116.033 36.3695 116.501 36.9489C116.966 36.3695 117.671 36 118.457 36ZM103.502 46C104.641 46 105.71 46.2975 106.641 46.8147C108.643 47.9345 110 50.0836 110 52.5532C110 53.2596 109.885 53.9388 109.678 54.5734C108.561 59.6269 98.502 66 98.502 66C98.502 66 88.4359 59.6268 87.3209 54.5734C87.1141 53.9388 87 53.2605 87 52.5532C87 50.0827 88.3567 47.9329 90.3591 46.8147C91.2925 46.2975 92.3586 46 93.4954 46C95.5086 46 97.3074 46.9238 98.502 48.3723C99.6909 46.9238 101.491 46 103.502 46ZM71.5 75C75.0899 75 78 72.0899 78 68.5C78 64.9101 75.0899 62 71.5 62C67.9101 62 65 64.9101 65 68.5C65 72.0899 67.9101 75 71.5 75ZM79.5385 78H62.5782C58.4842 78 55.1373 81.318 55.1167 85.396L55 108.473C54.9913 110.207 56.3959 111.621 58.137 111.629H58.1534C59.8875 111.629 61.2971 110.233 61.3061 108.504L61.4226 85.4278V85.42C61.4266 85.0774 61.7077 84.8022 62.0516 84.8042C62.3955 84.8062 62.6732 85.0847 62.6732 85.4273L62.6746 138.231C62.6746 140.312 64.3687 142 66.4583 142C68.548 142 70.242 140.312 70.242 138.231V108.102H71.8757V138.231C71.8757 140.312 73.5696 142 75.6593 142C77.7489 142 79.4428 140.312 79.4428 138.231C79.4428 110.407 79.4219 107.006 79.4032 103.955V103.955C79.3884 101.543 79.3749 99.3497 79.3742 85.4733C79.3742 85.1197 79.6543 84.8294 80.0091 84.8155C80.3638 84.8017 80.6664 85.0691 80.6938 85.4215V85.4218L80.6724 108.485C80.6707 110.22 82.0811 111.628 83.8224 111.629H83.8254C85.5652 111.629 86.9768 110.225 86.9783 108.491L86.9997 85.415L87 85.4085C87 85.4044 87 85.4003 86.9999 85.396C86.9793 81.318 83.6322 78 79.5385 78ZM134.15 84.3909C135.049 87.0256 140.766 103.438 140.823 103.603C141.394 105.24 140.537 107.033 138.911 107.606C137.287 108.18 135.505 107.32 134.934 105.682C134.752 105.16 131.414 95.5759 129.48 89.9988C129.496 90.1248 129.505 90.2136 129.513 90.2916L129.523 90.3838C129.577 90.881 129.672 91.3738 131.334 99.9973L131.339 100.022C131.955 103.219 132.786 107.53 133.91 113.367C134.117 114.446 133.296 115.446 132.208 115.446H129.827V138.231C129.827 140.312 128.15 142 126.082 142C124.014 142 122.337 140.312 122.337 138.231V115.446H120.72V138.231C120.72 140.312 119.044 142 116.976 142C114.908 142 113.231 140.312 113.231 138.231V115.446H110.85C109.767 115.446 108.94 114.447 109.148 113.367C111.211 102.645 112.29 97.1185 112.863 94.178L112.863 94.178L112.863 94.1776L112.863 94.1772C113.432 91.2601 113.505 90.8888 113.55 90.5143C113.556 90.4597 113.562 90.405 113.569 90.3423C113.579 90.2523 113.591 90.1457 113.609 89.9991C112.11 94.3218 109.684 101.136 108.605 104.165C108.303 105.014 108.107 105.566 108.066 105.682C107.497 107.317 105.717 108.181 104.089 107.607C102.463 107.033 101.606 105.24 102.177 103.603C102.234 103.438 107.951 87.0254 108.85 84.3909C110.298 80.1503 112.725 78 116.065 78H126.935C130.274 78 132.702 80.1502 134.15 84.3909ZM121.5 75C125.09 75 128 72.0899 128 68.5C128 64.9101 125.09 62 121.5 62C117.91 62 115 64.9101 115 68.5C115 72.0899 117.91 75 121.5 75ZM80.9776 46.2444C80.6942 46.0892 80.3691 46 80.0223 46C79.4104 46 78.8624 46.2771 78.5006 46.7117C78.1371 46.2771 77.5896 46 76.9768 46C76.6309 46 76.3064 46.0892 76.0224 46.2444C75.4129 46.5799 75 47.2248 75 47.966C75 48.1782 75.0347 48.3817 75.0977 48.572C75.437 50.088 78.5006 52 78.5006 52C78.5006 52 81.5622 50.0881 81.902 48.572C81.9649 48.3817 82 48.1779 82 47.966C82 47.2251 81.5871 46.5803 80.9776 46.2444Z" fill="#248DFF"/>
</svg>
