<svg width="197" height="197" viewBox="0 0 197 197" fill="none" xmlns="http://www.w3.org/2000/svg">
<rect width="197" height="197" rx="98.5" fill="#49B8FF" fill-opacity="0.1"/>
<path fill-rule="evenodd" clip-rule="evenodd" d="M106 68.5C106 72.0899 103.09 75 99.5 75C95.9101 75 93 72.0899 93 68.5C93 64.9101 95.9101 62 99.5 62C103.09 62 106 64.9101 106 68.5ZM90.5782 78H107.539C111.632 78 114.979 81.318 115 85.396C115 85.4025 115 85.4085 115 85.415L114.978 108.491C114.977 110.225 113.565 111.629 111.825 111.629H111.822C110.081 111.628 108.671 110.22 108.672 108.485L108.694 85.4218V85.4215C108.666 85.0691 108.364 84.8017 108.009 84.8155C107.654 84.8294 107.374 85.1197 107.374 85.4733C107.375 99.3497 107.388 101.543 107.403 103.955C107.422 107.006 107.443 110.406 107.443 138.231C107.443 140.312 105.749 142 103.659 142C101.57 142 99.8757 140.312 99.8757 138.231V108.102H98.242V138.231C98.242 140.312 96.548 142 94.4583 142C92.3687 142 90.6746 140.312 90.6746 138.231L90.6732 85.4273C90.6732 85.0847 90.3955 84.8062 90.0516 84.8042C89.7077 84.8022 89.4266 85.0774 89.4226 85.42V85.4278L89.3061 108.504C89.2971 110.233 87.8875 111.629 86.1534 111.629H86.137C84.3959 111.621 82.9913 110.207 83 108.473L83.1167 85.396C83.1373 81.318 86.4842 78 90.5782 78Z" fill="#248DFF"/>
</svg>
