<svg width="88" height="83" viewBox="0 0 88 83" fill="none" xmlns="http://www.w3.org/2000/svg">
<path fill-rule="evenodd" clip-rule="evenodd" d="M6.02826 0.55542H82.1433C85.3725 0.55542 88 3.1829 87.9998 6.41197V51.7657C87.9876 50.9683 87.3366 50.3248 86.5362 50.3248H85.0723V6.41197C85.0723 4.79589 83.7578 3.48292 82.1433 3.48292H6.02826C4.41372 3.48292 3.09921 4.79589 3.09921 6.41197V50.3248H1.63529C0.827337 50.3248 0.171539 50.9806 0.171539 51.7886V6.41197C0.171539 3.1829 2.79902 0.55542 6.02826 0.55542ZM35.2621 64.9628H6.02826C2.79902 64.9628 0.171539 62.3354 0.171539 59.1061V51.7886C0.171539 52.5965 0.827337 53.2523 1.63529 53.2523L3.09921 53.2523V59.1061C3.09921 60.7222 4.41372 62.0352 6.02826 62.0352H82.1433C83.7578 62.0352 85.0723 60.7222 85.0723 59.1061H85.0725V53.2523L86.5361 53.2523C87.344 53.2523 87.9998 52.5965 87.9998 51.7886V51.7657L88 51.7886V59.1061C88 62.3354 85.3725 64.9628 82.1433 64.9628H52.9096C52.8823 64.4936 52.8686 64.0056 52.8686 63.4991C52.8686 62.6911 52.2128 62.0353 51.4049 62.0353H36.7668C35.9589 62.0353 35.3031 62.6911 35.3031 63.4991C35.3031 64.0056 35.2894 64.4936 35.2621 64.9628ZM27.984 73.7457C32.4791 73.7457 34.923 70.7929 35.2621 64.9628H38.191C37.9772 68.776 36.9161 71.7491 35.1141 73.7457H27.984ZM60.1877 73.7457H63.1152C65.5363 73.7457 67.5066 75.716 67.5068 78.1371C67.5068 80.5582 65.5365 82.5285 63.1154 82.5285H25.0563C22.6352 82.5285 20.6649 80.5582 20.6649 78.1371C20.6649 75.716 22.6352 73.7457 25.0563 73.7457H27.984C27.176 73.7457 26.5202 74.4015 26.5202 75.2094C26.5202 76.0174 27.176 76.6732 27.984 76.6732H60.1877C60.9957 76.6732 61.6515 76.0174 61.6515 75.2094C61.6515 74.4015 60.9957 73.7457 60.1877 73.7457ZM60.1877 73.7457C55.6926 73.7457 53.2487 70.7929 52.9096 64.9628H49.9819C50.1941 68.776 51.2555 71.7491 53.0589 73.7457H60.1877ZM39.6943 56.18H48.4772C49.2851 56.18 49.9409 56.8358 49.9409 57.6437C49.9409 58.4517 49.2851 59.1075 48.4772 59.1075H39.6943C38.8864 59.1075 38.2306 58.4517 38.2306 57.6437C38.2306 56.8358 38.8864 56.18 39.6943 56.18ZM25.0563 79.601H63.1152C63.9233 79.601 64.5791 78.9437 64.5791 78.1373C64.5791 77.3307 63.9233 76.6735 63.1154 76.6735H25.0563C24.2484 76.6735 23.5926 77.3307 23.5926 78.1373C23.5926 78.9439 24.2484 79.601 25.0563 79.601ZM61.1031 27.2912C61.1031 27.7771 61.3495 28.219 61.7817 28.5024C63.4348 29.5903 64.1261 31.4886 63.5453 33.3428C62.9531 35.227 61.2065 36.4083 59.1708 36.4041C58.5716 36.3488 58.0942 36.6308 57.7783 37.0727C57.6153 37.3009 57.3758 37.7711 57.5997 38.3732C58.267 40.1707 57.6945 42.086 56.1449 43.2533C54.53 44.4687 52.3542 44.48 50.7307 43.2816C50.2845 42.9514 49.7193 42.8608 49.1824 43.0421C48.6851 43.2049 48.3168 43.5691 48.1737 44.0379C47.5986 45.912 45.9255 47.1232 43.9141 47.1232C41.9026 47.1232 40.2309 45.9134 39.6544 44.0393C39.5098 43.5689 39.143 43.2063 38.6457 43.042C38.1074 42.8649 37.5436 42.9528 37.0974 43.2814C35.4741 44.4827 33.2981 44.47 31.6833 43.2531C30.132 42.0858 29.5611 40.1692 30.2284 38.373C30.4507 37.7709 30.2113 37.3007 30.0499 37.0726C29.7339 36.6305 29.2239 36.3457 28.6573 36.4039C28.6358 36.4039 28.6141 36.4042 28.5925 36.4046C28.5713 36.4049 28.5503 36.4053 28.5298 36.4053C26.5594 36.4053 24.8623 35.187 24.2829 33.3426C23.702 31.4882 24.3933 29.59 26.0465 28.5021C26.4786 28.2187 26.7251 27.7768 26.7251 27.2908C26.7251 26.8049 26.4786 26.363 26.0465 26.0796C24.3933 24.9917 23.702 23.0934 24.2829 21.2391C24.8623 19.3947 26.5594 18.1764 28.5298 18.1764C28.5739 18.1754 28.6179 18.1767 28.6613 18.178L28.7069 18.1793C29.2565 18.1793 29.7425 17.9371 30.0499 17.5093C30.2128 17.2811 30.4523 16.8109 30.2284 16.2088C29.5611 14.4113 30.1336 12.496 31.6833 11.3287C33.2981 10.1133 35.4739 10.102 37.0974 11.3004C37.5436 11.6277 38.1074 11.7184 38.6457 11.5399C39.143 11.3771 39.5113 11.0129 39.6544 10.5441C40.2296 8.66999 41.9026 7.45875 43.9141 7.45875C45.9255 7.45875 47.5972 8.66862 48.1737 10.5427C48.3183 11.0131 48.6851 11.3757 49.1824 11.54C49.7207 11.7213 50.2845 11.6306 50.7307 11.3006C52.354 10.1006 54.5314 10.1135 56.1449 11.3289C57.6961 12.4962 58.267 14.4128 57.5997 16.209C57.3774 16.8111 57.6168 17.2813 57.7783 17.5094C58.0942 17.95 58.5956 18.2177 59.1708 18.1781C61.2108 18.1683 62.9531 19.3554 63.5453 21.2394C64.1261 23.0938 63.4348 24.992 61.7817 26.0799C61.3495 26.3633 61.1031 26.8052 61.1031 27.2912ZM60.8438 32.4929C60.919 32.2564 61.0946 31.439 60.2277 30.8695C59.0037 30.065 58.2728 28.7263 58.2728 27.29C58.2728 25.8535 59.0037 24.515 60.229 23.7103C61.0946 23.1421 60.919 22.3234 60.8438 22.0868C60.6752 21.5501 60.1908 20.945 59.2487 21.0089C57.7373 21.0059 56.3363 20.3558 55.4764 19.1545C54.6547 18.0071 54.4564 16.5368 54.9451 15.2221C55.2722 14.3382 54.7027 13.7857 54.4422 13.5916C53.9745 13.2376 53.163 13.0264 52.4135 13.579C51.2349 14.4473 49.6965 14.6922 48.2955 14.2291C46.9143 13.7743 45.8816 12.7331 45.4637 11.3747V11.3733C45.2202 10.5772 44.5035 10.2924 43.9141 10.2924C43.3246 10.2924 42.608 10.577 42.3628 11.376C41.945 12.7345 40.9137 13.7757 39.531 14.2318C38.1314 14.6909 36.5902 14.4487 35.4131 13.5817C34.6622 13.0278 33.8505 13.2417 33.3844 13.5944C33.1237 13.7899 32.5542 14.3409 32.8815 15.2249C33.3702 16.5408 33.1719 18.0112 32.3502 19.1573C31.4918 20.3586 30.0909 21.0046 28.5779 21.0116C27.6824 20.9421 27.1513 21.5526 26.9827 22.0896C26.9076 22.3261 26.7319 23.1435 27.5989 23.713C28.8228 24.5175 29.5538 25.8562 29.5538 27.2927C29.5538 28.7292 28.8228 30.0677 27.5975 30.8724C26.7319 31.4406 26.9076 32.2593 26.9827 32.4959C27.1513 33.0326 27.6514 33.6433 28.5779 33.5738C30.068 33.5738 31.4903 34.2269 32.3502 35.4282C33.1719 36.5756 33.3702 38.0459 32.8815 39.3605C32.5543 40.2445 33.1239 40.797 33.3844 40.991C33.852 41.3451 34.6636 41.5563 35.4131 41.0037C36.1992 40.4243 37.1442 40.1225 38.1018 40.1225C38.5821 40.1225 39.0651 40.1977 39.5326 40.3521C40.9138 40.8068 41.9465 41.848 42.3644 43.2065C42.6093 44.0053 43.3248 44.2901 43.9141 44.2901C44.5033 44.2901 45.2186 44.0055 45.4637 43.2065C45.8816 41.848 46.9129 40.8068 48.2955 40.3507C49.6965 39.8916 51.2364 40.1325 52.4135 41.0008C53.163 41.5547 53.9761 41.3408 54.4422 40.9881C54.7029 40.7926 55.2724 40.2416 54.9451 39.3576C54.4564 38.0418 54.6547 36.5713 55.4764 35.4253C56.3348 34.224 57.733 33.5666 59.2487 33.5709C60.1539 33.6347 60.6752 33.0299 60.8438 32.4929ZM43.9142 15.9586C37.6657 15.9586 32.5814 21.0427 32.5814 27.2913C32.5814 33.54 37.6655 38.6241 43.9142 38.6241C50.1629 38.6241 55.247 33.54 55.247 27.2913C55.247 21.0427 50.1627 15.9586 43.9142 15.9586ZM43.9142 35.7908C39.2267 35.7908 35.4148 31.9788 35.4148 27.2913C35.4148 22.6038 39.2267 18.7919 43.9142 18.7919C48.6017 18.7919 52.4137 22.6038 52.4137 27.2913C52.4137 31.9788 48.6017 35.7908 43.9142 35.7908ZM42.4976 28.1214L40.6659 26.2897C40.112 25.7358 39.2168 25.7358 38.6629 26.2897C38.109 26.8436 38.109 27.7389 38.6629 28.2928L41.496 31.1259C40.9421 30.572 40.9421 29.6768 41.496 29.1229L42.4976 28.1214ZM43.4991 31.1259C44.053 30.572 44.053 29.6768 43.4991 29.1229L42.4976 28.1214L47.1625 23.4566C47.7164 22.9027 48.6117 22.9027 49.1656 23.4566C49.7195 24.0105 49.7195 24.9057 49.1654 25.4596L43.4991 31.1259Z" fill="#248DFF"/>
</svg>
