<svg width="197" height="204" viewBox="0 0 197 204" fill="none" xmlns="http://www.w3.org/2000/svg">
<rect width="197" height="204" rx="20" fill="#248DFF"/>
<path fill-rule="evenodd" clip-rule="evenodd" d="M61.0283 61.5554H137.143C140.373 61.5554 143 64.1829 143 67.412V112.766C142.988 111.968 142.337 111.325 141.536 111.325H140.072V67.412C140.072 65.7959 138.758 64.4829 137.143 64.4829H61.0283C59.4137 64.4829 58.0992 65.7959 58.0992 67.412V111.325H56.6353C55.8273 111.325 55.1715 111.981 55.1715 112.789V67.412C55.1715 64.1829 57.799 61.5554 61.0283 61.5554ZM90.2621 125.963H61.0283C57.799 125.963 55.1715 123.335 55.1715 120.106V112.789C55.1715 113.597 55.8273 114.252 56.6353 114.252L58.0992 114.252V120.106C58.0992 121.722 59.4137 123.035 61.0283 123.035H137.143C138.758 123.035 140.072 121.722 140.072 120.106H140.073V114.252L141.536 114.252C142.344 114.252 143 113.597 143 112.789V112.766L143 112.789V120.106C143 123.335 140.373 125.963 137.143 125.963H107.91C107.882 125.494 107.869 125.006 107.869 124.499C107.869 123.691 107.213 123.035 106.405 123.035H91.7668C90.9589 123.035 90.3031 123.691 90.3031 124.499C90.3031 125.006 90.2894 125.494 90.2621 125.963ZM82.984 134.746C87.4791 134.746 89.923 131.793 90.2621 125.963H93.191C92.9772 129.776 91.9161 132.749 90.1141 134.746H82.984ZM115.188 134.746H118.115C120.536 134.746 122.507 136.716 122.507 139.137C122.507 141.558 120.536 143.529 118.115 143.529H80.0563C77.6352 143.529 75.6649 141.558 75.6649 139.137C75.6649 136.716 77.6352 134.746 80.0563 134.746H82.984C82.176 134.746 81.5202 135.401 81.5202 136.209C81.5202 137.017 82.176 137.673 82.984 137.673H115.188C115.996 137.673 116.651 137.017 116.651 136.209C116.651 135.401 115.996 134.746 115.188 134.746ZM115.188 134.746C110.693 134.746 108.249 131.793 107.91 125.963H104.982C105.194 129.776 106.255 132.749 108.059 134.746H115.188ZM94.6943 117.18H103.477C104.285 117.18 104.941 117.836 104.941 118.644C104.941 119.452 104.285 120.107 103.477 120.107H94.6943C93.8864 120.107 93.2306 119.452 93.2306 118.644C93.2306 117.836 93.8864 117.18 94.6943 117.18ZM80.0563 140.601H118.115C118.923 140.601 119.579 139.944 119.579 139.137C119.579 138.331 118.923 137.674 118.115 137.674H80.0563C79.2484 137.674 78.5926 138.331 78.5926 139.137C78.5926 139.944 79.2484 140.601 80.0563 140.601ZM116.103 88.2912C116.103 88.7771 116.35 89.219 116.782 89.5024C118.435 90.5903 119.126 92.4886 118.545 94.3428C117.953 96.227 116.206 97.4083 114.171 97.4041C113.572 97.3488 113.094 97.6308 112.778 98.0727C112.615 98.3009 112.376 98.7711 112.6 99.3732C113.267 101.171 112.695 103.086 111.145 104.253C109.53 105.469 107.354 105.48 105.731 104.282C105.285 103.951 104.719 103.861 104.182 104.042C103.685 104.205 103.317 104.569 103.174 105.038C102.599 106.912 100.926 108.123 98.9141 108.123C96.9026 108.123 95.2309 106.913 94.6544 105.039C94.5098 104.569 94.143 104.206 93.6457 104.042C93.1074 103.865 92.5436 103.953 92.0974 104.281C90.4741 105.483 88.2981 105.47 86.6833 104.253C85.132 103.086 84.5611 101.169 85.2284 99.373C85.4507 98.7709 85.2113 98.3007 85.0499 98.0726C84.7339 97.6305 84.2239 97.3457 83.6573 97.4039C83.6358 97.4039 83.6141 97.4042 83.5925 97.4046C83.5713 97.4049 83.5503 97.4053 83.5298 97.4053C81.5594 97.4053 79.8623 96.187 79.2829 94.3426C78.702 92.4882 79.3933 90.59 81.0465 89.5021C81.4786 89.2187 81.7251 88.7768 81.7251 88.2908C81.7251 87.8049 81.4786 87.363 81.0465 87.0796C79.3933 85.9917 78.702 84.0934 79.2829 82.2391C79.8623 80.3947 81.5594 79.1764 83.5298 79.1764C83.5739 79.1754 83.6179 79.1767 83.6613 79.178L83.7069 79.1793C84.2565 79.1793 84.7425 78.9371 85.0499 78.5093C85.2128 78.2811 85.4523 77.8109 85.2284 77.2088C84.5611 75.4113 85.1336 73.496 86.6833 72.3287C88.2981 71.1133 90.4739 71.102 92.0974 72.3004C92.5436 72.6277 93.1074 72.7184 93.6457 72.5399C94.143 72.3771 94.5113 72.0129 94.6544 71.5441C95.2296 69.67 96.9026 68.4587 98.9141 68.4587C100.926 68.4587 102.597 69.6686 103.174 71.5427C103.318 72.0131 103.685 72.3757 104.182 72.54C104.721 72.7213 105.285 72.6306 105.731 72.3006C107.354 71.1006 109.531 71.1135 111.145 72.3289C112.696 73.4962 113.267 75.4128 112.6 77.209C112.377 77.8111 112.617 78.2813 112.778 78.5094C113.094 78.95 113.596 79.2177 114.171 79.1781C116.211 79.1683 117.953 80.3554 118.545 82.2394C119.126 84.0938 118.435 85.992 116.782 87.0799C116.35 87.3633 116.103 87.8052 116.103 88.2912ZM115.844 93.4929C115.919 93.2564 116.095 92.439 115.228 91.8695C114.004 91.065 113.273 89.7263 113.273 88.29C113.273 86.8535 114.004 85.515 115.229 84.7103C116.095 84.1421 115.919 83.3234 115.844 83.0868C115.675 82.5501 115.191 81.945 114.249 82.0089C112.737 82.0059 111.336 81.3558 110.476 80.1545C109.655 79.0071 109.456 77.5368 109.945 76.2221C110.272 75.3382 109.703 74.7857 109.442 74.5916C108.975 74.2376 108.163 74.0264 107.414 74.579C106.235 75.4473 104.696 75.6922 103.296 75.2291C101.914 74.7743 100.882 73.7331 100.464 72.3747V72.3733C100.22 71.5772 99.5035 71.2924 98.9141 71.2924C98.3246 71.2924 97.608 71.577 97.3628 72.376C96.945 73.7345 95.9137 74.7757 94.531 75.2318C93.1314 75.6909 91.5902 75.4487 90.4131 74.5817C89.6622 74.0278 88.8505 74.2417 88.3844 74.5944C88.1237 74.7899 87.5542 75.3409 87.8815 76.2249C88.3702 77.5408 88.1719 79.0112 87.3502 80.1573C86.4918 81.3586 85.0909 82.0046 83.5779 82.0116C82.6824 81.9421 82.1513 82.5526 81.9827 83.0896C81.9076 83.3261 81.7319 84.1435 82.5989 84.713C83.8228 85.5175 84.5538 86.8562 84.5538 88.2927C84.5538 89.7292 83.8228 91.0677 82.5975 91.8724C81.7319 92.4406 81.9076 93.2593 81.9827 93.4959C82.1513 94.0326 82.6514 94.6433 83.5779 94.5738C85.068 94.5738 86.4903 95.2269 87.3502 96.4282C88.1719 97.5756 88.3702 99.0459 87.8815 100.361C87.5543 101.244 88.1239 101.797 88.3844 101.991C88.852 102.345 89.6636 102.556 90.4131 102.004C91.1992 101.424 92.1442 101.123 93.1018 101.123C93.5821 101.123 94.0651 101.198 94.5326 101.352C95.9138 101.807 96.9465 102.848 97.3644 104.206C97.6093 105.005 98.3248 105.29 98.9141 105.29C99.5033 105.29 100.219 105.006 100.464 104.206C100.882 102.848 101.913 101.807 103.296 101.351C104.696 100.892 106.236 101.132 107.414 102.001C108.163 102.555 108.976 102.341 109.442 101.988C109.703 101.793 110.272 101.242 109.945 100.358C109.456 99.0418 109.655 97.5713 110.476 96.4253C111.335 95.224 112.733 94.5666 114.249 94.5709C115.154 94.6347 115.675 94.0299 115.844 93.4929ZM98.9142 76.9586C92.6657 76.9586 87.5814 82.0427 87.5814 88.2913C87.5814 94.54 92.6655 99.6241 98.9142 99.6241C105.163 99.6241 110.247 94.54 110.247 88.2913C110.247 82.0427 105.163 76.9586 98.9142 76.9586ZM98.9142 96.7908C94.2267 96.7908 90.4148 92.9788 90.4148 88.2913C90.4148 83.6038 94.2267 79.7919 98.9142 79.7919C103.602 79.7919 107.414 83.6038 107.414 88.2913C107.414 92.9788 103.602 96.7908 98.9142 96.7908ZM97.4976 89.1214L95.6659 87.2897C95.112 86.7358 94.2168 86.7358 93.6629 87.2897C93.109 87.8436 93.109 88.7389 93.6629 89.2928L96.496 92.1259C95.9421 91.572 95.9421 90.6768 96.496 90.1229L97.4976 89.1214ZM98.4991 92.1259C99.053 91.572 99.053 90.6768 98.4991 90.1229L97.4976 89.1214L102.163 84.4566C102.716 83.9027 103.612 83.9027 104.166 84.4566C104.719 85.0105 104.719 85.9057 104.165 86.4596L98.4991 92.1259Z" fill="white"/>
</svg>
