<svg width="197" height="204" viewBox="0 0 197 204" fill="none" xmlns="http://www.w3.org/2000/svg">
<rect width="197" height="204" rx="20" fill="#248DFF" fill-opacity="0.1"/>
<path fill-rule="evenodd" clip-rule="evenodd" d="M141.412 60.0442H56.4166C55.6347 60.0442 55 60.6773 55 61.4608V115.293C55 116.076 55.6347 116.709 56.4166 116.709H83.1391C83.921 116.709 84.5556 116.076 84.5556 115.293C84.5556 113.856 83.8247 112.516 82.6008 111.713C81.7338 111.143 81.9095 110.326 81.9846 110.089C82.1532 109.553 82.6843 108.942 83.5798 109.011C85.1041 109.013 86.4937 108.358 87.3521 107.158C88.1722 106.012 88.3721 104.542 87.8834 103.225C87.6379 102.562 87.8969 102.086 88.1517 101.807C88.226 101.726 88.3 101.661 88.361 101.613L88.3735 101.604L88.3861 101.594C88.8522 101.242 89.6639 101.028 90.4148 101.582C91.5919 102.449 93.1318 102.691 94.5328 102.232C95.2174 102.006 95.8158 101.637 96.2962 101.156C96.786 100.667 97.153 100.062 97.3633 99.3757C97.4237 99.1791 97.5126 99.0136 97.6211 98.8759C97.6779 98.8037 97.7401 98.7392 97.8065 98.6817C98.1281 98.4034 98.5461 98.2923 98.9144 98.2923C99.5038 98.2923 100.221 98.577 100.464 99.3745C100.882 100.733 101.915 101.776 103.296 102.23C104.697 102.689 106.237 102.447 107.414 101.58C108.163 101.028 108.975 101.239 109.442 101.593C109.703 101.787 110.273 102.339 109.945 103.222C109.84 103.505 109.767 103.794 109.726 104.084C109.57 105.152 109.831 106.254 110.477 107.157C111.337 108.357 112.738 109.007 114.249 109.01C115.191 108.946 115.676 109.551 115.844 110.088C115.92 110.325 116.094 111.143 115.23 111.712C114.004 112.515 113.273 113.853 113.273 115.291C113.273 116.075 113.908 116.708 114.69 116.708H141.412C142.194 116.708 142.829 116.075 142.829 115.291V61.4608C142.828 60.6773 142.194 60.0442 141.412 60.0442ZM86.6803 99.3289C87.3508 98.8243 88.1179 98.5273 88.9021 98.4382C90.0072 98.3122 91.1462 98.5993 92.096 99.3004C92.4418 99.5551 92.8582 99.6661 93.2786 99.6201C93.4002 99.6066 93.5222 99.5801 93.6428 99.5401C94.1401 99.3759 94.507 99.0131 94.6515 98.5443C94.9224 97.6651 95.434 96.9322 96.1082 96.4017C96.1532 96.3663 96.1989 96.3318 96.2452 96.2983C96.987 95.7613 97.9082 95.4588 98.9141 95.4588C100.926 95.4588 102.597 96.6687 103.174 98.5427C103.318 99.0131 103.685 99.3771 104.184 99.5401C104.721 99.7214 105.285 99.6306 105.731 99.3006C107.354 98.1007 109.53 98.112 111.146 99.3289C112.116 100.059 112.703 101.081 112.843 102.184C112.894 102.58 112.887 102.987 112.819 103.394C112.774 103.667 112.702 103.939 112.601 104.209C112.587 104.247 112.575 104.285 112.565 104.321C112.453 104.72 112.541 105.086 112.71 105.376H119.908C121.121 105.376 122.316 105.714 123.366 106.351C124.475 107.022 126.97 108.157 131.205 108.208C132.7 108.177 134.04 107.239 134.278 105.915C134.546 104.422 133.687 103.286 132.715 102.819C132.715 102.819 132.715 102.819 132.715 102.819L132.715 102.818L132.714 102.818C131.115 102.05 130.079 100.359 130.079 98.5101V78.243C130.079 76.3943 131.115 74.703 132.717 73.9352C133.688 73.4691 134.548 72.3316 134.281 70.8385C134.043 69.5125 132.69 68.5606 131.208 68.545C126.973 68.5946 124.478 69.7307 123.367 70.4037C122.318 71.0397 121.121 71.3768 119.908 71.3768H77.9203C76.7092 71.3768 75.5122 71.0396 74.461 70.4021C73.3519 69.7307 70.8573 68.596 66.6217 68.545C65.1186 68.5805 63.7856 69.5141 63.5477 70.8385C63.2801 72.3316 64.1398 73.4691 65.1102 73.9338C66.7138 74.703 67.7494 76.3943 67.7494 78.243V98.5115C67.7494 100.36 66.7138 102.052 65.1116 102.819C64.1398 103.285 63.2799 104.423 63.5477 105.916C63.7856 107.241 65.1073 108.157 66.6217 108.21C70.8572 108.16 73.3519 107.024 74.4624 106.351C75.5121 105.715 76.7077 105.376 77.9203 105.376H85.118C85.2566 105.139 85.3407 104.851 85.3059 104.536C85.2932 104.432 85.2676 104.323 85.2255 104.209C84.5582 102.411 85.1307 100.496 86.6803 99.3289ZM119.908 108.21H118.068C118.268 108.524 118.43 108.869 118.547 109.241C119.095 110.982 118.516 112.765 117.072 113.875H139.995V62.8773H57.8332V113.874H80.7562C79.3113 112.764 78.7332 110.982 79.2801 109.239C79.3962 108.87 79.5571 108.526 79.7561 108.211H77.9203C77.2263 108.211 76.5392 108.406 75.9315 108.773C74.2727 109.779 71.3176 110.986 66.6556 111.043C63.7247 111.033 61.2485 109.13 60.7598 106.416C60.2994 103.852 61.5573 101.38 63.8877 100.264C64.5122 99.965 64.916 99.275 64.916 98.5101V78.243C64.916 77.478 64.5122 76.7896 63.8861 76.4892C61.5557 75.3742 60.2992 72.9023 60.7583 70.3383C61.2427 67.6468 63.6835 65.7117 66.5789 65.7117H66.6555C71.3176 65.7669 74.2725 66.9753 75.9299 67.9796C76.5391 68.3479 77.2263 68.5435 77.9203 68.5435H119.908C120.602 68.5435 121.289 68.3481 121.895 67.9812C123.554 66.9754 126.509 65.7685 131.173 65.7119C134.094 65.7218 136.581 67.6244 137.068 70.3385C137.529 72.9025 136.272 75.3745 133.941 76.4908C133.316 76.7882 132.912 77.4781 132.912 78.243V98.5115C132.912 99.2766 133.316 99.965 133.942 100.265C136.273 101.38 137.529 103.852 137.069 106.416C136.586 109.107 134.145 111.042 131.25 111.042H131.173C126.51 110.986 123.556 109.778 121.897 108.774C121.29 108.404 120.601 108.21 119.908 108.21ZM96.0811 91.2091C96.0811 90.4256 96.7158 89.7925 97.4977 89.7925H100.331H111.664C112.445 89.7925 113.08 90.4256 113.08 91.2091C113.08 91.9925 112.445 92.6256 111.664 92.6256H100.331H97.4977C96.7158 92.6256 96.0811 91.9925 96.0811 91.2091ZM97.0854 130.569C96.5089 129.406 95.438 128.563 94.1475 128.252C92.8484 127.937 91.4857 128.21 90.4148 129.001C89.6569 129.563 88.7985 129.354 88.2842 128.899C87.9655 128.617 87.535 128.492 87.1169 128.562C86.6977 128.631 86.3307 128.883 86.1182 129.252L80.6885 138.665C80.4037 139.158 80.4419 139.774 80.7849 140.227C81.1276 140.679 81.7071 140.888 82.2596 140.747L86.5519 139.675L87.6242 143.966C87.7659 144.531 88.239 144.953 88.8169 145.029C88.8778 145.036 88.9373 145.04 88.9982 145.04C89.5109 145.04 89.9899 144.762 90.2405 144.306L97.0585 131.881C97.2824 131.474 97.2921 130.984 97.0854 130.569ZM89.4953 139.771L88.9557 137.614C88.7942 136.969 88.2177 136.54 87.583 136.54C87.4682 136.54 87.3535 136.554 87.2387 136.581L84.8121 137.187L87.8648 131.895C89.2574 132.406 90.8368 132.211 92.0976 131.28C92.6388 130.879 93.1968 130.932 93.4829 131.005C93.7265 131.063 93.949 131.172 94.1331 131.32L89.4953 139.771ZM111.712 129.25L117.142 138.663C117.426 139.156 117.388 139.771 117.045 140.226C116.702 140.68 116.124 140.889 115.57 140.746L111.278 139.673L110.206 143.964C110.064 144.53 109.591 144.952 109.013 145.027C108.951 145.035 108.89 145.039 108.83 145.039C108.319 145.039 107.84 144.762 107.59 144.304L100.771 131.879C100.548 131.473 100.538 130.983 100.745 130.568C101.321 129.406 102.392 128.562 103.683 128.25C104.983 127.934 106.344 128.21 107.415 128.999C108.173 129.56 109.033 129.352 109.546 128.897C109.864 128.615 110.292 128.491 110.713 128.56C111.132 128.63 111.499 128.883 111.712 129.25ZM108.873 137.614C109.063 136.853 109.835 136.395 110.591 136.582L113.018 137.189L109.965 131.896C108.572 132.409 106.993 132.214 105.732 131.281C105.191 130.881 104.633 130.933 104.347 131.007C104.102 131.065 103.879 131.174 103.695 131.32L108.333 139.771L108.873 137.614ZM105.997 82.7096H124.413C125.195 82.7096 125.829 83.3427 125.829 84.1262C125.829 84.9096 125.195 85.5427 124.413 85.5427H105.997C105.215 85.5427 104.581 84.9096 104.581 84.1262C104.581 83.3427 105.215 82.7096 105.997 82.7096ZM111.664 75.6267H100.331H97.4977C96.7158 75.6267 96.0811 76.2599 96.0811 77.0433C96.0811 77.8267 96.7158 78.4599 97.4977 78.4599H100.331H111.664C112.445 78.4599 113.08 77.8267 113.08 77.0433C113.08 76.2599 112.445 75.6267 111.664 75.6267ZM117.33 75.6267H124.413C125.195 75.6267 125.829 76.2599 125.829 77.0433C125.829 77.8267 125.195 78.4599 124.413 78.4599H117.33C116.548 78.4599 115.913 77.8267 115.913 77.0433C115.913 76.2599 116.548 75.6267 117.33 75.6267ZM101.747 84.1262C101.747 83.3427 101.113 82.7096 100.331 82.7096H97.4977H86.1649C85.383 82.7096 84.7483 83.3427 84.7483 84.1262C84.7483 84.9096 85.383 85.5427 86.1649 85.5427H97.4977H100.331C101.113 85.5427 101.747 84.9096 101.747 84.1262ZM91.8313 75.6267H73.4157C72.6338 75.6267 71.9991 76.2599 71.9991 77.0433C71.9991 77.8267 72.6338 78.4599 73.4157 78.4599H91.8313C92.6132 78.4599 93.2479 77.8267 93.2479 77.0433C93.2479 76.2599 92.6132 75.6267 91.8313 75.6267ZM80.4986 82.7096H73.4157C72.6338 82.7096 71.9991 83.3427 71.9991 84.1262C71.9991 84.9096 72.6338 85.5427 73.4157 85.5427H80.4986C81.2804 85.5427 81.9151 84.9096 81.9151 84.1262C81.9151 83.3427 81.2806 82.7096 80.4986 82.7096ZM73.4157 96.8755H80.4986C81.2806 96.8755 81.9151 97.5087 81.9151 98.2921C81.9151 99.0755 81.2804 99.7087 80.4986 99.7087H73.4157C72.6338 99.7087 71.9991 99.0755 71.9991 98.2921C71.9991 97.5087 72.6338 96.8755 73.4157 96.8755ZM124.413 96.8755H117.33C116.548 96.8755 115.913 97.5087 115.913 98.2921C115.913 99.0755 116.548 99.7087 117.33 99.7087H124.413C125.195 99.7087 125.829 99.0755 125.829 98.2921C125.829 97.5087 125.195 96.8755 124.413 96.8755ZM124.413 89.7925H117.33C116.548 89.7925 115.913 90.4256 115.913 91.2091C115.913 91.9925 116.548 92.6256 117.33 92.6256H124.413C125.195 92.6256 125.829 91.9925 125.829 91.2091C125.829 90.4256 125.195 89.7925 124.413 89.7925ZM73.4157 89.7925H91.8313C92.6132 89.7925 93.2479 90.4256 93.2479 91.2091C93.2479 91.9925 92.6132 92.6256 91.8313 92.6256H73.4157C72.6338 92.6256 71.9991 91.9925 71.9991 91.2091C71.9991 90.4256 72.6338 89.7925 73.4157 89.7925ZM98.9142 103.958C92.6657 103.958 87.5814 109.043 87.5814 115.291C87.5814 121.54 92.6655 126.624 98.9142 126.624C105.163 126.624 110.247 121.54 110.247 115.291C110.247 109.043 105.163 103.958 98.9142 103.958ZM98.9142 123.791C94.2267 123.791 90.4148 119.979 90.4148 115.291C90.4148 110.604 94.2267 106.792 98.9142 106.792C103.602 106.792 107.414 110.604 107.414 115.291C107.414 119.979 103.602 123.791 98.9142 123.791ZM97.4976 116.121L95.666 114.29C95.112 113.736 94.2168 113.736 93.6629 114.29C93.109 114.843 93.109 115.739 93.6629 116.293L96.494 119.124C96.4947 119.124 96.4954 119.125 96.496 119.126C96.5306 119.16 96.5664 119.193 96.6035 119.223C96.8629 119.435 97.1802 119.541 97.4977 119.541C97.8605 119.541 98.2229 119.402 98.4991 119.126C98.4991 119.126 98.4991 119.126 98.4991 119.126L104.165 113.46C104.719 112.906 104.719 112.01 104.166 111.456C103.612 110.903 102.716 110.903 102.163 111.456L97.4976 116.121Z" fill="#248DFF"/>
</svg>
