<svg width="88" height="86" viewBox="0 0 88 86" fill="none" xmlns="http://www.w3.org/2000/svg">
<path fill-rule="evenodd" clip-rule="evenodd" d="M86.4119 0.0441895H1.41658C0.634698 0.0441895 0 0.677343 0 1.46077V55.2926C0 56.076 0.634698 56.7092 1.41658 56.7092H28.1391C28.921 56.7092 29.5556 56.076 29.5556 55.2926C29.5556 53.8561 28.8247 52.516 27.6008 51.7129C26.7338 51.1434 26.9095 50.326 26.9846 50.0894C27.1532 49.5525 27.6843 48.942 28.5798 49.0115C30.1041 49.0128 31.4937 48.3584 32.3521 47.1585C33.1722 46.0124 33.3721 44.542 32.8834 43.2246C32.6379 42.5616 32.8969 42.0859 33.1517 41.807C33.226 41.7257 33.3 41.6611 33.361 41.6135L33.3735 41.6038L33.3861 41.5943C33.8522 41.2416 34.6639 41.0277 35.4148 41.5816C36.5919 42.4485 38.1318 42.6907 39.5328 42.2317C40.2174 42.0058 40.8158 41.6365 41.2962 41.1563C41.786 40.6666 42.153 40.0616 42.3633 39.3757C42.4237 39.1791 42.5126 39.0136 42.6211 38.8759C42.6779 38.8037 42.7401 38.7392 42.8065 38.6817C43.1281 38.4034 43.5461 38.2923 43.9144 38.2923C44.5038 38.2923 45.2205 38.577 45.4641 39.3745C45.882 40.733 46.9146 41.7756 48.2959 42.2303C49.6968 42.6894 51.2368 42.447 52.4139 41.5802C53.1632 41.0277 53.9749 41.2388 54.4425 41.5929C54.7031 41.7869 55.2726 42.3394 54.9454 43.222C54.8403 43.5049 54.7674 43.7936 54.7257 44.0838C54.5703 45.1523 54.831 46.254 55.4769 47.1571C56.3368 48.357 57.7378 49.0072 59.2492 49.0101C60.1913 48.9463 60.6757 49.5513 60.8444 50.0881C60.9195 50.3246 61.0936 51.1434 60.2296 51.7115C59.0043 52.5147 58.2733 53.8534 58.2733 55.2912C58.2733 56.0746 58.908 56.7078 59.6899 56.7078H86.4124C87.1943 56.7078 87.829 56.0746 87.829 55.2912V1.46077C87.8285 0.677343 87.1938 0.0441895 86.4119 0.0441895ZM31.6803 39.3289C32.3508 38.8243 33.1179 38.5273 33.9021 38.4382C35.0072 38.3122 36.1462 38.5993 37.096 39.3004C37.4418 39.5551 37.8582 39.6661 38.2786 39.6201C38.4002 39.6066 38.5222 39.5801 38.6428 39.5401C39.1401 39.3759 39.507 39.0131 39.6515 38.5443C39.9224 37.6651 40.434 36.9322 41.1082 36.4017C41.1532 36.3663 41.1989 36.3318 41.2452 36.2983C41.987 35.7613 42.9082 35.4588 43.9141 35.4588C45.9255 35.4588 47.5972 36.6687 48.1737 38.5427C48.3182 39.0131 48.6851 39.3771 49.1838 39.5401C49.7207 39.7214 50.2845 39.6306 50.7307 39.3006C52.3542 38.1007 54.5302 38.112 56.1464 39.3289C57.116 40.0585 57.7025 41.0809 57.8432 42.1836C57.8938 42.58 57.8867 42.9869 57.819 43.3943C57.7738 43.6667 57.7015 43.9393 57.6012 44.2092C57.5872 44.2471 57.5751 44.2845 57.5646 44.3214C57.4526 44.72 57.5406 45.0861 57.7103 45.3764H64.908C66.1206 45.3764 67.3162 45.7136 68.3659 46.3511C69.4751 47.0225 71.9696 48.1572 76.2053 48.2081C77.6999 48.1769 79.04 47.2391 79.2779 45.9147C79.5457 44.4216 78.6873 43.2856 77.7153 42.8194C77.7153 42.8194 77.7153 42.819 77.7151 42.8186L77.7147 42.8182L77.714 42.818C76.1147 42.0502 75.0791 40.3588 75.0791 38.5101V18.243C75.0791 16.3943 76.1145 14.703 77.7167 13.9352C78.6885 13.4691 79.5484 12.3316 79.2806 10.8385C79.0425 9.51251 77.6898 8.56063 76.208 8.54502C71.9725 8.5946 69.4778 9.73071 68.3672 10.4037C67.3176 11.0397 66.1206 11.3768 64.908 11.3768H22.9203C21.7092 11.3768 20.5122 11.0396 19.461 10.4021C18.3519 9.73071 15.8573 8.59597 11.6217 8.54502C10.1186 8.58053 8.78559 9.51405 8.54766 10.8385C8.28006 12.3316 9.13982 13.4691 10.1102 13.9338C11.7138 14.703 12.7494 16.3943 12.7494 18.243V38.5115C12.7494 40.3602 11.7138 42.0516 10.1116 42.8194C9.13982 43.2855 8.27989 44.4229 8.54766 45.916C8.78559 47.2407 10.1073 48.157 11.6217 48.2095C15.8572 48.1599 18.3519 47.0238 19.4624 46.3509C20.5121 45.7148 21.7077 45.3762 22.9203 45.3762H30.118C30.2566 45.1391 30.3407 44.8506 30.3059 44.5362C30.2932 44.4324 30.2676 44.323 30.2255 44.209C29.5582 42.4115 30.1307 40.4962 31.6803 39.3289ZM64.9083 48.2099H63.0682C63.2682 48.5238 63.4299 48.8688 63.5468 49.241C64.0949 50.9819 63.5156 52.7655 62.0721 53.8746H84.9953V2.87734H2.83315V53.8743H25.7562C24.3113 52.7637 23.7332 50.9816 24.2801 49.2393C24.3962 48.8698 24.5571 48.5255 24.7561 48.2111H22.9203C22.2263 48.2111 21.5392 48.4064 20.9315 48.7734C19.2727 49.7791 16.3176 50.9861 11.6556 51.0427C8.72469 51.0327 6.24851 49.1302 5.7598 46.4161C5.29938 43.8521 6.55729 41.38 8.88766 40.2638C9.51223 39.965 9.91604 39.275 9.91604 38.5101V18.243C9.91604 17.478 9.51223 16.7896 8.88611 16.4892C6.55574 15.3742 5.29921 12.9023 5.75825 10.3383C6.24268 7.64684 8.68352 5.7117 11.5789 5.7117H11.6555C16.3176 5.76693 19.2725 6.97526 20.9299 7.97963C21.5391 8.34792 22.2263 8.54348 22.9203 8.54348H64.908C65.602 8.54348 66.2892 8.3481 66.8954 7.98117C68.5542 6.97543 71.5092 5.76848 76.1727 5.71187C79.0936 5.72182 81.5811 7.62437 82.0685 10.3385C82.5289 12.9025 81.2724 15.3745 78.9406 16.4908C78.316 16.7882 77.9122 17.4781 77.9122 18.243V38.5115C77.9122 39.2766 78.3161 39.965 78.9422 40.2653C81.2725 41.3802 82.5291 43.8522 82.0688 46.4164C81.5858 49.1065 79.1449 51.0416 76.2495 51.0416H76.173C71.5095 50.9864 68.5559 49.7781 66.8972 48.7737C66.2896 48.4039 65.601 48.2099 64.9083 48.2099ZM41.0811 31.2091C41.0811 30.4256 41.7158 29.7925 42.4977 29.7925H45.3308H56.6636C57.4455 29.7925 58.0802 30.4256 58.0802 31.2091C58.0802 31.9925 57.4455 32.6256 56.6636 32.6256H45.3308H42.4977C41.7158 32.6256 41.0811 31.9925 41.0811 31.2091ZM42.0854 70.5691C41.5089 69.406 40.438 68.5633 39.1475 68.2516C37.8484 67.9371 36.4857 68.2104 35.4148 69.0008C34.6569 69.5633 33.7985 69.3535 33.2842 68.8988C32.9655 68.6169 32.535 68.4922 32.1169 68.5617C31.6977 68.6312 31.3307 68.8833 31.1182 69.2516L25.6885 78.6649C25.4037 79.1579 25.4419 79.7741 25.7849 80.2275C26.1276 80.6793 26.7071 80.8875 27.2596 80.7474L31.5519 79.6751L32.6242 83.966C32.7659 84.5312 33.239 84.9534 33.8169 85.0285C33.8778 85.0355 33.9373 85.0398 33.9982 85.0398C34.5109 85.0398 34.9899 84.7621 35.2405 84.306L42.0585 71.8812C42.2824 71.4743 42.2921 70.984 42.0854 70.5691ZM34.4953 79.7712L33.9557 77.6137C33.7942 76.9692 33.2177 76.5399 32.583 76.5399C32.4682 76.5399 32.3535 76.5541 32.2387 76.5809L29.8121 77.1871L32.8648 71.8947C34.2574 72.4061 35.8368 72.2107 37.0976 71.2799C37.6388 70.879 38.1968 70.9315 38.4829 71.0051C38.7265 71.0633 38.949 71.1722 39.1331 71.3196L34.4953 79.7712ZM56.7118 69.2501L62.1416 78.6634C62.4261 79.1564 62.3879 79.7712 62.0451 80.2257C61.7022 80.6805 61.1243 80.8887 60.5704 80.7457L56.2781 79.6734L55.2058 83.9643C55.0643 84.5295 54.591 84.9517 54.0131 85.0268C53.9509 85.0352 53.89 85.0395 53.8304 85.0395C53.3191 85.0395 52.8403 84.7618 52.5895 84.3043L45.7715 71.8793C45.5476 71.4727 45.5377 70.9827 45.7446 70.5675C46.3211 69.406 47.392 68.5617 48.6825 68.25C49.983 67.934 51.3443 68.2102 52.4152 68.9993C53.1731 69.5602 54.033 69.352 54.5458 68.8972C54.8645 68.6154 55.2923 68.4907 55.7131 68.5602C56.1323 68.6296 56.4993 68.8832 56.7118 69.2501ZM53.8728 77.6137C54.0627 76.8529 54.8346 76.3954 55.5911 76.5824L58.0177 77.1886L54.965 71.8963C53.5724 72.409 51.9931 72.2136 50.7323 71.2815C50.1912 70.8806 49.633 70.9331 49.3469 71.0067C49.1018 71.0648 48.8795 71.1737 48.6952 71.3197L53.3331 79.7712L53.8728 77.6137ZM50.9971 22.7096H69.4128C70.1948 22.7096 70.8294 23.3427 70.8294 24.1262C70.8294 24.9096 70.1947 25.5427 69.4128 25.5427H50.9971C50.2152 25.5427 49.5805 24.9096 49.5805 24.1262C49.5805 23.3427 50.2152 22.7096 50.9971 22.7096ZM56.6636 15.6267H45.3308H42.4977C41.7158 15.6267 41.0811 16.2599 41.0811 17.0433C41.0811 17.8267 41.7158 18.4599 42.4977 18.4599H45.3308H56.6636C57.4455 18.4599 58.0802 17.8267 58.0802 17.0433C58.0802 16.2599 57.4455 15.6267 56.6636 15.6267ZM62.3299 15.6267H69.4128C70.1948 15.6267 70.8294 16.2599 70.8294 17.0433C70.8294 17.8267 70.1947 18.4599 69.4128 18.4599H62.3299C61.548 18.4599 60.9133 17.8267 60.9133 17.0433C60.9133 16.2599 61.548 15.6267 62.3299 15.6267ZM46.7474 24.1262C46.7474 23.3427 46.1127 22.7096 45.3308 22.7096H42.4977H31.1649C30.383 22.7096 29.7483 23.3427 29.7483 24.1262C29.7483 24.9096 30.383 25.5427 31.1649 25.5427H42.4977H45.3308C46.1127 25.5427 46.7474 24.9096 46.7474 24.1262ZM36.8313 15.6267H18.4157C17.6338 15.6267 16.9991 16.2599 16.9991 17.0433C16.9991 17.8267 17.6338 18.4599 18.4157 18.4599H36.8313C37.6132 18.4599 38.2479 17.8267 38.2479 17.0433C38.2479 16.2599 37.6132 15.6267 36.8313 15.6267ZM25.4986 22.7096H18.4157C17.6338 22.7096 16.9991 23.3427 16.9991 24.1262C16.9991 24.9096 17.6338 25.5427 18.4157 25.5427H25.4986C26.2804 25.5427 26.9151 24.9096 26.9151 24.1262C26.9151 23.3427 26.2806 22.7096 25.4986 22.7096ZM18.4157 36.8755H25.4986C26.2806 36.8755 26.9151 37.5087 26.9151 38.2921C26.9151 39.0755 26.2804 39.7087 25.4986 39.7087H18.4157C17.6338 39.7087 16.9991 39.0755 16.9991 38.2921C16.9991 37.5087 17.6338 36.8755 18.4157 36.8755ZM69.4128 36.8755H62.3299C61.548 36.8755 60.9133 37.5087 60.9133 38.2921C60.9133 39.0755 61.548 39.7087 62.3299 39.7087H69.4128C70.1947 39.7087 70.8294 39.0755 70.8294 38.2921C70.8294 37.5087 70.1948 36.8755 69.4128 36.8755ZM69.4128 29.7925H62.3299C61.548 29.7925 60.9133 30.4256 60.9133 31.2091C60.9133 31.9925 61.548 32.6256 62.3299 32.6256H69.4128C70.1947 32.6256 70.8294 31.9925 70.8294 31.2091C70.8294 30.4256 70.1948 29.7925 69.4128 29.7925ZM18.4157 29.7925H36.8313C37.6132 29.7925 38.2479 30.4256 38.2479 31.2091C38.2479 31.9925 37.6132 32.6256 36.8313 32.6256H18.4157C17.6338 32.6256 16.9991 31.9925 16.9991 31.2091C16.9991 30.4256 17.6338 29.7925 18.4157 29.7925ZM43.9142 43.9584C37.6657 43.9584 32.5814 49.0425 32.5814 55.2912C32.5814 61.5399 37.6655 66.624 43.9142 66.624C50.1629 66.624 55.247 61.5399 55.247 55.2912C55.247 49.0425 50.1627 43.9584 43.9142 43.9584ZM43.9142 63.7907C39.2267 63.7907 35.4148 59.9787 35.4148 55.2912C35.4148 50.6037 39.2267 46.7917 43.9142 46.7917C48.6017 46.7917 52.4137 50.6037 52.4137 55.2912C52.4137 59.9787 48.6017 63.7907 43.9142 63.7907ZM42.4976 56.1212L40.666 54.2896C40.112 53.7357 39.2168 53.7357 38.6629 54.2896C38.109 54.8435 38.109 55.7388 38.6629 56.2927L41.494 59.1238C41.4947 59.1245 41.4954 59.1251 41.496 59.1258C41.5306 59.1603 41.5664 59.1927 41.6035 59.2229C41.8629 59.4346 42.1802 59.5409 42.4977 59.5409C42.8605 59.5409 43.2229 59.4022 43.4991 59.1258C43.4991 59.1258 43.4991 59.1258 43.4991 59.1258L49.1654 53.4595C49.7195 52.9056 49.7195 52.0103 49.1656 51.4564C48.6117 50.9025 47.7164 50.9025 47.1625 51.4564L42.4976 56.1212Z" fill="white"/>
</svg>
