<svg width="30" height="30" viewBox="0 0 30 30" fill="none" xmlns="http://www.w3.org/2000/svg">
<path fill-rule="evenodd" clip-rule="evenodd" d="M25.9438 0H4.04062C1.80917 0 0.000152588 1.80895 0.000152588 4.04046V25.9438C0.000152588 28.1754 1.8091 29.9843 4.04062 29.9843H14.8432L14.8616 19.2695H12.0779C11.7161 19.2695 11.4225 18.977 11.4211 18.6153L11.4078 15.1614C11.4064 14.7977 11.7009 14.5021 12.0646 14.5021H14.8433V11.1648C14.8433 7.29198 17.2086 5.18318 20.6634 5.18318H23.4984C23.8611 5.18318 24.1552 5.47724 24.1552 5.84002V8.7523C24.1552 9.11494 23.8613 9.40892 23.4987 9.40914L21.759 9.40995C19.8801 9.40995 19.5163 10.3028 19.5163 11.613V14.5022H23.6448C24.0381 14.5022 24.3434 14.8457 24.297 15.2363L23.8876 18.6901C23.8485 19.0207 23.5682 19.2697 23.2354 19.2697H19.5347L19.5163 29.9844H25.944C28.1754 29.9844 29.9844 28.1755 29.9844 25.9441V4.04046C29.9843 1.80895 28.1754 0 25.9438 0Z" fill="#248DFF"/>
</svg>
